<?xml version="1.0" standalone="no"?>
<!DOCTYPE svg PUBLIC "-//W3C//DTD SVG 20010904//EN"
 "http://www.w3.org/TR/2001/REC-SVG-20010904/DTD/svg10.dtd">
<svg version="1.0" xmlns="http://www.w3.org/2000/svg"
 width="1024.000000pt" height="1024.000000pt" viewBox="0 0 1024.000000 1024.000000"
 preserveAspectRatio="xMidYMid meet">

<g transform="translate(0.000000,1024.000000) scale(0.100000,-0.100000)"
fill="#000000" stroke="none">
<path d="M4895 7873 c-469 -56 -902 -213 -1278 -463 -594 -395 -1010 -971
-1177 -1630 -150 -593 -108 -1196 122 -1744 89 -215 194 -397 339 -593 231
-311 544 -589 877 -777 56 -32 102 -59 102 -61 0 -1 -35 -1 -77 0 -47 2 -84
-2 -92 -9 -12 -9 -13 -8 -6 3 6 10 4 12 -6 6 -20 -13 -49 -13 -49 -1 0 7 -3 7
-8 1 -8 -11 -33 -14 -154 -18 -43 -1 -78 -5 -78 -9 0 -4 -7 -4 -17 -1 -10 4
-14 2 -10 -4 4 -7 -8 -9 -38 -5 -34 3 -45 1 -45 -9 0 -11 -2 -11 -10 1 -6 10
-10 11 -10 3 0 -7 -11 -13 -24 -13 -32 0 -57 -10 -51 -20 3 -5 1 -11 -5 -15
-5 -3 -10 2 -10 11 0 13 -8 8 -26 -17 -21 -28 -25 -30 -19 -10 l7 24 -22 -21
c-12 -11 -19 -25 -15 -31 3 -6 1 -11 -4 -11 -6 0 -11 6 -11 13 0 8 -3 7 -10
-3 -6 -9 -5 -17 2 -21 7 -4 7 -9 -1 -13 -16 -10 -4 -26 14 -20 8 3 26 -4 41
-15 15 -12 23 -21 19 -21 -5 0 -17 7 -27 17 -10 9 -18 12 -18 7 0 -19 17 -30
51 -32 57 -5 74 -9 72 -19 -1 -5 6 -9 15 -9 27 -1 134 -14 167 -19 17 -3 50
-8 75 -10 25 -2 56 -6 70 -9 35 -6 146 -18 200 -22 184 -11 233 -15 239 -19 8
-4 97 -10 291 -20 542 -26 1409 -21 1825 10 33 3 96 7 140 11 44 3 100 7 125
9 25 2 68 6 95 10 28 3 73 8 100 11 72 6 110 11 195 24 67 11 119 18 158 22 6
1 12 5 12 10 0 4 7 8 16 8 9 0 13 -5 9 -12 -4 -7 2 -4 12 7 11 12 27 19 41 17
13 -2 33 5 44 15 11 10 22 17 24 16 12 -8 24 -1 18 10 -5 7 0 6 11 -3 17 -13
18 -13 13 1 -7 19 8 47 19 36 4 -5 1 -12 -6 -16 -8 -5 -9 -11 -4 -14 6 -4 15
5 21 18 7 16 8 26 1 30 -5 4 -7 10 -4 14 2 5 -9 7 -26 6 -23 -2 -33 2 -36 15
-3 10 -12 21 -20 24 -8 4 -11 2 -7 -5 4 -8 1 -8 -12 -1 -11 5 -25 8 -32 6 -7
-1 -8 0 -2 3 5 2 10 9 10 14 0 6 -5 7 -11 3 -6 -3 -16 0 -21 7 -8 11 -9 10 -4
-3 3 -10 1 -20 -4 -23 -6 -4 -10 1 -10 10 0 9 -4 14 -9 10 -5 -3 -12 -1 -16 5
-3 5 -11 10 -16 10 -6 0 -7 -5 -3 -11 4 -8 0 -8 -15 0 -12 7 -25 10 -30 7 -5
-3 -16 3 -25 13 -16 17 -52 21 -75 6 -6 -3 -11 -1 -11 5 0 6 -11 8 -27 4 -22
-4 -24 -3 -13 5 11 8 -6 10 -62 8 -53 -2 -74 0 -68 7 5 8 -4 10 -28 9 -21 -1
-39 -2 -42 -3 -3 -2 -9 -1 -15 0 -5 1 -29 3 -53 5 -24 2 -45 5 -48 7 -2 3 42
33 99 68 245 152 407 281 602 482 385 394 645 903 734 1433 42 248 49 565 20
830 -23 208 -110 535 -196 735 -144 332 -297 567 -529 809 -360 376 -758 627
-1234 779 -115 37 -386 93 -456 95 -29 1 -50 6 -47 10 3 5 -19 7 -50 5 -30 -1
-53 0 -51 4 4 7 -374 8 -431 1z m480 -819 c341 -46 639 -178 934 -413 202
-161 309 -278 454 -493 136 -203 247 -479 288 -717 23 -133 32 -371 19 -531
-18 -221 -84 -459 -189 -675 -216 -449 -583 -788 -1060 -981 -205 -84 -428
-124 -681 -124 -386 0 -697 89 -1019 292 -134 84 -200 137 -325 258 -130 126
-214 229 -303 370 -195 308 -290 622 -301 982 -7 259 20 444 99 682 99 295
241 526 473 764 201 207 411 349 684 462 329 136 583 170 927 124z m1775
-4590 c0 -2 -7 -4 -15 -4 -8 0 -15 4 -15 10 0 5 7 7 15 4 8 -4 15 -8 15 -10z"/>
<path d="M4997 6719 c-36 -13 -77 -39 -110 -69 -197 -180 -155 -496 81 -612
165 -81 371 -31 470 116 47 71 65 143 60 241 -7 140 -76 248 -195 307 -58 28
-78 33 -157 35 -72 2 -103 -2 -149 -18z"/>
<path d="M4770 5651 c-7 -14 -10 -367 -10 -1084 0 -883 3 -1067 14 -1076 9 -8
116 -10 367 -9 l354 3 3 1079 c1 789 -1 1082 -9 1092 -9 11 -79 14 -360 14
-335 0 -349 -1 -359 -19z"/>
</g>
</svg>
