<?xml version="1.0" standalone="no"?>
<!DOCTYPE svg PUBLIC "-//W3C//DTD SVG 20010904//EN"
 "http://www.w3.org/TR/2001/REC-SVG-20010904/DTD/svg10.dtd">
<svg version="1.0" xmlns="http://www.w3.org/2000/svg"
 width="1024.000000pt" height="1024.000000pt" viewBox="0 0 1024.000000 1024.000000"
 preserveAspectRatio="xMidYMid meet">

<g transform="translate(0.000000,1024.000000) scale(0.100000,-0.100000)"
fill="#000000" stroke="none">
<path d="M7109 8654 c-111 -33 -205 -134 -235 -254 -17 -67 -16 -137 5 -270 5
-36 12 -90 16 -120 3 -30 8 -66 10 -80 2 -14 7 -50 10 -80 3 -30 7 -66 9 -80
3 -14 14 -99 26 -190 11 -91 27 -205 35 -255 24 -153 27 -185 17 -185 -5 0
-83 138 -172 308 -184 348 -292 542 -328 590 -92 122 -295 162 -444 86 -96
-48 -168 -149 -193 -270 -12 -57 -12 -79 0 -145 14 -80 65 -198 130 -299 19
-30 35 -57 35 -61 0 -3 -62 -7 -138 -7 -76 -1 -151 -6 -166 -12 -33 -12 -79
-13 -91 -1 -22 20 -267 141 -355 176 -166 65 -388 133 -521 160 -205 42 -299
50 -584 50 -195 0 -273 -4 -355 -18 -410 -71 -719 -234 -921 -486 l-35 -44
-68 13 c-41 7 -99 10 -145 7 -310 -23 -453 -306 -332 -660 55 -161 143 -302
282 -450 l82 -88 -22 -91 c-26 -105 -28 -112 -41 -193 -6 -37 -10 -509 -10
-1231 l0 -1171 -45 -139 c-51 -157 -101 -406 -121 -607 -1 -17 -3 -157 -3
-309 l-1 -278 -129 0 c-120 0 -132 -2 -156 -23 -38 -33 -44 -86 -12 -123 l25
-29 2479 -3 c2450 -2 2478 -2 2510 18 56 34 57 102 1 141 -30 22 -39 23 -205
21 -111 -1 -173 1 -173 8 0 5 5 10 10 10 37 0 175 169 233 285 102 206 117
295 117 710 l0 322 38 32 c110 94 302 296 371 391 176 243 309 510 399 805 48
157 58 198 91 380 53 299 56 323 56 580 l0 250 36 35 c75 73 156 229 186 359
22 94 27 216 13 302 -7 41 -12 85 -12 99 0 14 78 255 173 535 172 507 173 510
173 600 1 80 -2 97 -30 155 -41 88 -71 120 -146 160 -55 30 -74 35 -154 38
-83 4 -96 2 -149 -23 -104 -50 -149 -103 -206 -247 -20 -50 -53 -140 -120
-333 -94 -269 -99 -285 -108 -285 -4 0 -8 16 -9 36 -1 20 -18 178 -37 353 -20
174 -38 334 -40 356 -3 22 -9 85 -15 140 -6 55 -14 136 -17 180 -4 67 -17 141
-38 227 -5 24 -50 99 -74 125 -35 37 -103 79 -158 97 -61 20 -185 20 -254 0z
m216 -230 c14 -9 34 -32 46 -51 23 -36 24 -42 34 -154 3 -36 16 -158 30 -270
13 -112 33 -297 45 -410 11 -114 23 -217 25 -230 3 -13 10 -78 16 -144 5 -66
15 -132 21 -147 20 -53 92 -74 148 -44 23 13 25 12 41 -24 21 -47 68 -74 114
-66 57 11 81 51 144 232 72 210 200 564 217 600 30 63 60 84 121 84 65 0 123
-66 123 -139 0 -26 -149 -479 -295 -896 l-66 -190 14 -73 c33 -169 14 -347
-50 -464 -29 -53 -87 -118 -142 -159 l-34 -25 0 -269 c1 -156 -5 -314 -12
-375 -67 -559 -221 -979 -488 -1335 -64 -84 -226 -275 -234 -275 -8 0 -1 929
8 1120 5 96 15 209 23 250 8 41 17 98 20 125 4 28 9 64 12 80 2 17 8 106 12
199 l7 169 65 22 c98 32 136 53 197 109 84 76 106 151 60 194 -46 44 -99 39
-156 -15 -78 -73 -236 -103 -356 -68 -127 36 -220 95 -350 218 -49 48 -115
100 -146 116 -65 35 -207 75 -324 91 -136 18 -215 76 -215 157 0 123 124 202
300 190 192 -13 378 -82 543 -203 55 -40 66 -44 101 -39 76 10 119 83 91 150
-29 69 -175 168 -324 221 -42 15 -86 37 -97 50 -19 20 -89 145 -229 409 -26
50 -64 122 -85 160 -47 88 -136 257 -185 353 -48 93 -54 143 -23 197 64 110
184 114 254 7 35 -52 170 -301 379 -697 81 -153 131 -240 149 -254 8 -7 30
-15 50 -18 43 -7 79 14 108 62 19 33 20 34 44 18 34 -22 100 -12 132 21 35 35
35 61 -3 331 -8 61 -20 148 -25 195 -6 47 -13 96 -15 110 -2 14 -13 102 -25
195 -12 94 -23 181 -25 195 -2 14 -11 91 -20 172 l-17 147 22 39 c21 37 55 60
110 75 22 6 87 -11 115 -29z m-2775 -944 c313 -45 659 -168 936 -334 151 -90
454 -328 454 -357 0 -5 -62 22 -137 60 -329 164 -655 284 -1022 377 -138 34
-148 36 -266 55 -38 6 -81 12 -95 15 -75 12 -446 16 -553 5 -220 -23 -541
-117 -680 -199 -45 -26 -70 -28 -88 -6 -12 15 -9 21 26 51 173 150 452 280
700 327 113 22 125 23 370 24 171 1 250 -3 355 -18z m-445 -435 c187 -37 339
-90 600 -210 44 -20 147 -64 230 -97 172 -68 170 -68 158 -78 -4 -5 -44 -2
-88 6 -322 59 -329 61 -615 144 -461 135 -615 161 -932 161 -104 0 -188 3
-188 8 0 27 141 63 375 95 85 12 335 -4 460 -29z m-1247 -119 c134 -38 212
-75 465 -219 276 -158 323 -183 463 -243 107 -45 309 -106 414 -124 30 -5 82
-14 115 -20 102 -18 401 -24 556 -11 337 29 671 102 857 187 30 14 56 23 59
21 2 -3 -3 -30 -12 -60 l-16 -55 -124 -56 c-68 -31 -127 -56 -131 -56 -3 0
-20 -6 -37 -14 -32 -15 -77 -29 -212 -68 -65 -18 -317 -70 -403 -83 -20 -3
-143 -8 -272 -12 -250 -6 -398 6 -595 48 -317 67 -619 203 -859 384 -164 123
-476 391 -476 408 0 15 108 1 208 -27z m80 -456 c9 -16 33 -58 52 -91 46 -81
166 -204 258 -263 71 -47 81 -59 62 -71 -9 -6 -141 57 -193 93 -95 65 -247
257 -247 312 0 54 41 66 68 20z m3595 -635 c104 -99 211 -172 319 -217 l78
-32 0 -1430 c0 -867 -4 -1461 -10 -1506 -11 -84 -30 -150 -66 -228 -13 -29
-24 -55 -24 -58 0 -15 -71 -105 -123 -157 -94 -93 -185 -143 -337 -184 -60
-17 -149 -18 -1260 -18 l-1195 0 -72 22 c-233 70 -371 181 -465 374 -72 146
-68 45 -68 1692 0 815 3 1499 7 1520 7 44 0 44 133 2 47 -14 114 -33 150 -41
158 -35 351 -74 372 -75 22 0 22 -1 4 -12 -39 -24 -98 -81 -112 -108 -55 -108
55 -208 150 -135 57 43 137 79 187 84 39 4 69 -2 139 -28 102 -36 137 -34 170
7 39 50 38 105 -2 143 l-22 20 135 0 c145 1 185 3 384 25 266 30 484 74 757
154 167 49 487 177 623 249 22 12 45 21 50 21 6 0 50 -38 98 -84z m-3617 5 c5
-1 20 -10 33 -21 l25 -20 -17 -67 c-9 -37 -20 -87 -24 -112 -4 -25 -7 -445 -7
-934 -1 -692 -4 -890 -13 -893 -7 -3 -31 -27 -53 -55 l-40 -51 0 984 c1 1020
1 1013 41 1162 10 36 11 38 28 23 10 -9 22 -16 27 -16z m174 -2721 c0 -582 0
-582 72 -761 l39 -97 -3 -133 -3 -133 -253 3 c-154 1 -261 6 -273 13 -19 10
-20 20 -18 232 2 196 9 301 33 482 32 234 140 547 254 737 52 85 126 178 143
178 5 0 9 -212 9 -521z m310 -1097 c0 -4 12 -15 28 -24 l27 -17 -41 -1 c-43 0
-54 10 -54 51 0 17 3 18 20 9 11 -6 20 -14 20 -18z"/>
<path d="M5890 5535 c-75 -21 -97 -33 -139 -70 -52 -47 -67 -91 -47 -138 8
-20 27 -42 43 -51 33 -16 52 -13 166 27 102 37 178 23 272 -49 49 -37 83 -46
122 -33 39 12 73 60 73 100 0 48 -64 125 -147 175 -83 50 -242 68 -343 39z"/>
<path d="M4165 5016 c-70 -31 -117 -115 -137 -240 -20 -132 24 -274 105 -340
35 -28 46 -31 101 -30 75 1 115 22 152 77 48 73 63 135 60 254 -2 96 -5 114
-29 158 -35 65 -45 77 -91 109 -44 30 -110 35 -161 12z"/>
<path d="M5904 5016 c-43 -19 -90 -80 -111 -145 -27 -84 -24 -238 6 -315 32
-80 79 -131 136 -145 109 -27 198 30 239 154 32 95 30 246 -3 318 -27 57 -73
113 -112 133 -35 17 -114 18 -155 0z"/>
<path d="M4938 4338 c-100 -82 -31 -280 122 -351 62 -29 167 -28 235 2 98 43
154 122 163 226 4 59 3 62 -30 98 -26 27 -44 37 -65 37 -42 0 -81 -34 -89 -76
-8 -41 -38 -82 -71 -95 -49 -18 -123 35 -123 89 0 36 -52 82 -92 82 -19 0 -41
-6 -50 -12z"/>
<path d="M4102 4313 c-20 -17 -26 -36 -23 -76 0 -9 16 -26 34 -37 41 -25 191
-29 236 -5 46 23 54 66 20 109 -20 25 -23 26 -134 26 -93 0 -116 -3 -133 -17z"/>
<path d="M5850 4300 c-19 -27 -20 -32 -7 -63 21 -48 57 -60 170 -55 112 4 137
18 137 78 0 59 -26 70 -164 70 l-115 0 -21 -30z"/>
<path d="M3690 4153 c-8 -3 -28 -15 -43 -26 -77 -54 -61 -198 27 -238 51 -23
168 -25 219 -4 110 46 122 193 21 256 -25 15 -49 19 -120 18 -49 0 -96 -3
-104 -6z"/>
<path d="M6349 4137 c-77 -51 -90 -149 -28 -213 42 -44 93 -57 192 -52 84 5
112 21 144 82 22 42 13 119 -18 152 -41 44 -72 54 -167 54 -76 0 -94 -3 -123
-23z"/>
<path d="M4418 3854 c-34 -18 -51 -73 -39 -126 18 -80 119 -217 215 -293 136
-108 373 -185 566 -185 142 0 369 65 478 137 152 100 288 293 277 390 -9 75
-97 119 -152 75 -12 -9 -37 -44 -56 -77 -103 -177 -252 -274 -468 -305 -93
-13 -188 -4 -299 27 -139 39 -277 144 -350 267 -50 84 -73 106 -112 106 -18
-1 -45 -7 -60 -16z"/>
<path d="M1768 1941 c-25 -22 -32 -37 -32 -65 0 -51 29 -78 91 -83 60 -5 95
12 106 54 20 67 -17 113 -93 119 -33 3 -46 -2 -72 -25z"/>
<path d="M7443 1962 c-12 -2 -34 -17 -49 -34 -30 -36 -27 -79 7 -113 19 -19
35 -20 329 -23 l309 -3 32 29 c49 43 42 102 -15 135 -15 9 -103 12 -306 12
-157 0 -295 -1 -307 -3z"/>
</g>
</svg>
