<?xml version="1.0" standalone="no"?>
<!DOCTYPE svg PUBLIC "-//W3C//DTD SVG 20010904//EN"
 "http://www.w3.org/TR/2001/REC-SVG-20010904/DTD/svg10.dtd">
<svg version="1.0" xmlns="http://www.w3.org/2000/svg"
 width="1024.000000pt" height="1024.000000pt" viewBox="0 0 1024.000000 1024.000000"
 preserveAspectRatio="xMidYMid meet">

<g transform="translate(0.000000,1024.000000) scale(0.100000,-0.100000)"
fill="#000000" stroke="none">
<path d="M4342 8975 c-392 -62 -740 -338 -864 -686 -73 -207 -76 -461 -7 -618
11 -24 17 -46 14 -49 -2 -3 -34 9 -69 27 -108 53 -192 160 -231 295 -17 58
-17 100 0 271 5 50 3 65 -15 93 -22 35 -72 62 -115 62 -115 0 -205 -184 -205
-419 0 -133 18 -210 76 -330 39 -80 60 -108 138 -186 68 -68 109 -100 161
-126 39 -19 72 -35 74 -36 2 -2 -28 -36 -66 -77 -159 -166 -254 -365 -294
-611 -17 -105 -17 -418 0 -515 22 -129 81 -341 118 -429 25 -57 33 -86 25 -89
-31 -10 -135 -97 -171 -142 -51 -64 -96 -157 -117 -239 -22 -89 -15 -243 15
-331 57 -165 179 -309 322 -379 148 -72 266 -88 400 -52 l67 17 32 -83 c134
-344 412 -596 807 -730 62 -21 111 -42 110 -48 -2 -6 -104 -12 -263 -16 -281
-6 -302 -9 -387 -68 -24 -16 -55 -47 -70 -68 -53 -77 -60 -108 -65 -268 l-4
-150 -71 -75 c-38 -41 -96 -114 -129 -162 l-59 -88 -522 -1 c-648 -1 -658 -1
-1124 0 -296 1 -387 -1 -403 -11 -31 -19 -36 -55 -13 -86 l20 -27 988 -3 c783
-2 986 -5 981 -15 -3 -6 -27 -66 -54 -132 l-48 -120 -823 -3 -822 -2 3 -80 3
-80 799 0 c652 0 797 -2 793 -13 -3 -7 -13 -41 -22 -75 l-18 -62 -770 0 -770
0 7 -42 c11 -65 54 -182 103 -281 146 -289 428 -514 771 -616 58 -17 116 -41
132 -54 l29 -25 423 -7 c299 -5 4119 -1 4265 5 7 0 27 13 45 29 18 16 49 32
68 36 76 15 229 66 297 99 113 55 208 122 308 220 239 235 350 496 356 836 l2
105 -821 3 -820 2 -18 53 c-9 28 -20 57 -24 62 -7 11 -60 142 -60 150 0 3 436
5 968 5 926 0 970 1 985 18 22 25 22 75 -1 95 -20 18 -3 18 -1227 17 -291 -1
-592 -1 -667 0 l-137 0 -28 48 c-35 62 -102 149 -168 220 l-53 58 -4 149 c-3
139 -5 154 -30 200 -36 68 -111 138 -183 172 -60 28 -61 28 -319 33 -184 4
-260 8 -263 17 -2 6 11 14 29 18 48 10 263 93 333 128 167 83 311 208 407 351
66 100 149 258 168 324 15 47 20 49 81 26 29 -11 77 -17 139 -18 194 -2 352
80 500 259 18 22 29 34 25 26 -5 -9 -4 -12 3 -7 6 4 9 13 5 21 -3 8 -1 15 5
15 6 0 17 3 26 6 9 3 16 1 16 -6 0 -6 -6 -8 -12 -5 -7 4 -6 1 2 -7 10 -9 16
-39 19 -98 2 -49 8 -88 15 -92 8 -6 8 -8 -1 -8 -8 0 -11 -86 -12 -322 -1 -177
-3 -324 -5 -326 -2 -2 -129 -3 -282 -3 -309 1 -314 0 -314 -65 0 -64 0 -64
318 -64 l288 0 -3 -40 c-1 -29 1 -39 10 -33 7 4 5 -2 -3 -12 -11 -14 -12 -19
-2 -22 6 -3 12 -9 12 -14 0 -6 -4 -8 -9 -4 -6 3 -10 -86 -11 -230 l-1 -234 49
-48 c27 -26 58 -61 70 -78 l21 -30 1 373 0 372 98 1 c215 1 596 -2 602 -6 4
-2 6 -26 5 -52 -1 -26 2 -54 8 -61 6 -8 6 -12 -1 -12 -8 0 -11 -92 -9 -306 l2
-307 55 -1 c30 -1 61 -5 68 -9 9 -7 12 164 12 842 l0 851 44 0 c50 0 76 24 76
71 0 45 -29 61 -112 59 -133 -3 -118 -23 -118 154 l0 155 27 13 c15 7 34 26
42 42 12 25 11 31 -6 55 -11 14 -29 30 -41 36 -23 10 -26 26 -22 110 1 29 8
45 25 58 32 24 41 71 21 102 -13 20 -25 25 -61 25 l-45 0 0 98 c0 107 -8 174
-20 167 -5 -3 -6 4 -3 15 8 28 -49 142 -96 193 l-41 44 0 164 c0 151 -2 168
-24 214 -13 28 -35 61 -50 74 -26 24 -26 27 -26 156 0 115 -2 134 -18 148 -20
18 -49 22 -69 9 -29 -19 -45 -125 -20 -135 10 -4 10 -6 0 -6 -9 -1 -13 -22
-13 -72 0 -67 -2 -75 -34 -113 -59 -73 -66 -101 -66 -276 l0 -158 -35 -43
c-94 -111 -123 -207 -124 -411 l-1 -68 -33 0 c-38 0 -77 -34 -77 -66 0 -26 35
-64 60 -64 16 0 18 -5 13 -35 -4 -22 -1 -41 8 -52 11 -13 11 -15 1 -9 -10 6
-13 3 -12 -10 6 -52 0 -72 -19 -67 -31 8 -64 -33 -57 -70 8 -38 23 -57 46 -57
44 0 45 -3 42 -153 -2 -78 -4 -146 -6 -151 -1 -5 -35 -11 -74 -14 -81 -4 -82
-3 -56 69 25 71 29 203 10 292 -33 149 -129 292 -246 367 -28 18 -50 36 -50
40 0 5 9 24 20 43 55 93 127 380 145 579 l7 77 91 53 c190 112 325 278 392
483 28 87 49 264 43 361 -4 63 -6 69 -46 105 -32 30 -49 39 -77 39 -41 0 -82
-19 -107 -48 -40 -49 -210 -35 -321 25 -101 56 -269 239 -332 363 l-24 47 52
34 c29 18 80 61 114 96 110 111 183 302 183 477 0 66 -24 160 -51 197 -59 84
-176 73 -222 -20 -19 -39 -77 -55 -202 -54 -133 0 -207 20 -442 119 -454 192
-667 247 -1003 261 -316 13 -630 -51 -886 -180 -171 -86 -371 -247 -459 -370
-22 -31 -44 -56 -49 -57 -16 0 4 64 46 150 34 69 60 103 133 176 103 103 190
154 310 178 77 16 112 28 135 48 80 66 60 175 -40 226 -50 25 -52 25 -168 7z
m1166 -366 c160 -22 393 -90 577 -167 283 -119 385 -167 385 -180 0 -21 -44
-11 -270 64 -251 82 -425 129 -575 157 -103 18 -156 21 -370 21 -274 0 -345
-9 -557 -74 -160 -50 -321 -132 -475 -245 -35 -26 -63 -43 -63 -40 0 14 92
125 140 168 176 159 478 278 775 308 96 9 326 3 433 -12z m-1885 -1425 c3 -3
-25 -27 -63 -52 -176 -120 -296 -275 -364 -470 -27 -78 -38 -98 -55 -100 -29
-5 -28 23 5 134 76 265 277 485 450 493 11 1 23 -2 27 -5z m1717 -278 c307
-206 672 -401 1090 -582 l144 -63 4 -226 c2 -124 1 -233 -2 -241 -5 -13 -10
-12 -38 3 -30 17 -76 18 -539 21 -489 3 -508 2 -561 -18 -108 -40 -196 -162
-206 -287 l-5 -63 -132 0 -133 0 -7 65 c-12 119 -81 221 -187 277 l-43 23
-520 0 c-476 0 -523 -1 -550 -17 l-30 -18 -3 138 c-4 167 10 275 54 410 58
177 138 314 272 461 62 68 179 171 195 171 3 0 45 -40 94 -88 48 -49 116 -112
151 -140 215 -175 526 -324 817 -391 107 -25 358 -71 385 -71 19 0 19 -1 0
-42 -25 -54 -25 -72 0 -122 27 -58 51 -68 165 -77 55 -4 175 -22 266 -40 l165
-32 40 19 c45 22 84 88 84 142 0 46 -33 106 -73 131 -32 20 -225 71 -267 71
-17 0 -19 6 -19 49 3 94 -27 121 -231 211 -98 43 -192 99 -285 169 -73 55
-222 198 -279 266 l-41 50 65 -47 c36 -27 108 -77 160 -112z m2562 -643 c2
-57 0 -104 -4 -104 -4 -1 -15 -1 -23 -1 -8 0 -19 0 -25 1 -6 0 -10 42 -10 100
0 79 3 103 16 116 30 30 43 0 46 -112z m42 -313 c100 -95 119 -151 117 -342
l-1 -67 -187 2 -187 2 -3 85 c-5 141 30 238 117 328 55 56 77 55 144 -8z
m-3254 -310 c21 -11 51 -36 67 -57 l28 -36 3 -266 c3 -305 0 -322 -76 -403
-72 -77 -81 -78 -536 -78 -292 1 -400 4 -427 14 -57 20 -106 64 -134 119 -25
51 -25 53 -25 304 0 272 3 289 54 349 14 18 45 41 69 53 41 20 55 21 490 21
427 0 450 -1 487 -20z m1785 1 c22 -10 52 -31 67 -47 54 -58 58 -81 58 -356 0
-288 -4 -304 -87 -377 -67 -60 -92 -62 -544 -59 l-394 3 -45 27 c-52 30 -102
95 -120 153 -8 28 -10 121 -8 301 3 258 3 261 28 297 13 19 40 45 60 56 34 20
50 21 490 21 422 0 458 -2 495 -19z m542 -242 c69 -33 139 -103 172 -173 26
-54 50 -162 45 -207 -13 -130 -35 -190 -101 -276 -104 -138 -266 -199 -422
-159 -36 9 -70 21 -78 27 -7 7 -13 31 -13 58 0 43 4 50 55 100 30 29 55 57 55
62 0 5 7 9 15 9 15 0 41 38 37 53 -1 5 3 5 9 2 7 -5 7 -11 1 -17 -13 -13 -4
-38 14 -38 7 0 11 6 8 13 -2 7 3 13 13 13 10 1 27 4 38 8 11 4 8 0 -7 -9 -16
-8 -28 -21 -28 -28 0 -8 4 -6 10 3 5 8 10 11 10 5 0 -5 5 -3 10 5 6 9 13 11
18 5 10 -14 39 -17 47 -5 10 16 23 12 30 -10 4 -11 11 -17 17 -14 7 4 6 9 -2
14 -7 4 -9 13 -5 20 5 8 4 11 -3 6 -6 -3 -13 -2 -17 4 -3 5 1 10 9 10 8 0 18
-5 22 -11 4 -8 9 -8 17 0 16 16 25 14 32 -9 8 -24 21 -26 29 -4 3 8 2 12 -4 9
-6 -3 -10 -4 -10 -1 0 2 -3 12 -6 20 -5 12 -2 15 10 10 9 -3 16 -1 16 6 0 6 4
9 9 5 16 -9 34 64 29 120 -6 73 -35 124 -93 162 -57 38 -118 50 -177 35 -23
-6 -43 -10 -44 -9 -8 8 -6 189 1 196 18 18 80 30 125 25 25 -3 73 -18 107 -35z
m-3631 16 c30 -12 35 -19 30 -37 -3 -13 -6 -57 -6 -99 l0 -77 -37 13 c-45 16
-115 12 -163 -9 -52 -22 -107 -84 -121 -136 -14 -55 -5 -130 20 -161 15 -19
20 -20 41 -9 18 10 25 10 28 1 3 -9 8 -9 20 1 12 10 14 10 8 1 -4 -7 -4 -13 1
-13 11 0 34 -51 27 -61 -3 -5 5 -5 18 -1 13 5 46 8 73 8 44 -1 50 -3 47 -21
-3 -18 -2 -18 13 3 10 13 14 26 11 29 -3 4 -6 0 -6 -7 0 -11 -3 -11 -12 -2
-10 10 -10 15 2 22 8 5 12 12 8 15 -3 4 -2 20 4 36 6 17 12 28 14 26 3 -2 0
-17 -6 -33 -9 -25 -8 -26 3 -12 12 15 14 13 27 -15 15 -35 27 -51 88 -117 39
-44 42 -51 42 -103 l0 -56 -52 -16 c-190 -56 -400 45 -506 243 -47 88 -63 223
-37 318 33 123 134 237 238 270 57 17 140 17 183 -1z m4382 -14 l53 -1 -3 -77
-3 -78 -74 -3 c-41 -2 -78 1 -84 7 -13 13 -10 143 4 151 5 4 20 5 32 4 12 -1
46 -3 75 -3z m352 -77 l0 -84 -85 0 -85 0 0 85 0 85 85 -1 85 -1 0 -84z
m-2890 -199 c0 -123 3 -153 22 -202 38 -102 88 -171 163 -222 77 -53 120 -64
273 -70 104 -4 145 -10 151 -20 6 -9 11 -10 15 -2 11 17 44 13 56 -6 10 -16
11 -16 7 2 -4 19 1 20 167 19 94 -1 183 -7 198 -12 20 -8 28 -8 32 1 3 7 3 2
0 -11 -3 -12 -7 -37 -9 -55 -4 -28 -3 -30 7 -12 7 11 17 36 24 55 11 32 16 36
61 41 26 3 50 4 53 2 8 -7 -37 -167 -70 -249 -91 -229 -250 -402 -481 -526
-112 -61 -391 -143 -574 -169 -120 -17 -355 -15 -485 5 -369 58 -703 218 -873
422 -89 106 -151 226 -213 413 -36 111 -39 107 68 102 55 -2 96 -8 100 -15 4
-6 8 -7 8 -3 0 4 10 3 21 -4 12 -6 19 -7 16 -2 -4 5 7 10 24 10 22 0 28 -4 24
-14 -3 -8 -5 -19 -5 -24 0 -6 -5 -7 -10 -4 -6 4 -8 11 -5 16 3 5 -1 6 -9 3 -9
-3 -13 -10 -10 -15 3 -6 0 -17 -7 -25 -10 -12 -14 -12 -20 -2 -6 9 -9 6 -9 -9
0 -23 18 -27 33 -8 4 6 11 4 18 -5 8 -12 12 -12 16 -2 4 10 9 9 24 -4 18 -16
19 -16 19 9 0 14 -4 29 -10 32 -5 3 -10 11 -10 17 0 17 37 -25 43 -48 2 -10 5
-2 6 19 1 26 6 37 16 37 8 0 15 7 15 15 0 8 3 15 8 16 4 0 111 2 237 5 127 2
251 8 278 14 116 24 218 107 276 224 39 80 51 147 51 294 l0 112 135 0 135 0
0 -145z m2882 -97 c2 -45 1 -116 -2 -157 l-5 -76 -69 2 c-38 1 -70 4 -72 5 -1
2 -4 42 -6 90 -4 101 -20 128 -74 128 -47 0 -63 -28 -64 -115 -3 -108 0 -105
-86 -105 l-74 0 0 148 c0 82 3 152 7 155 3 4 104 7 224 7 l217 0 4 -82z
m-1187 -139 c4 -12 2 -26 -3 -31 -13 -13 -35 -1 -26 14 4 6 10 5 15 -3 7 -11
9 -11 9 2 0 8 -5 20 -12 27 -9 9 -9 12 -1 12 7 0 15 -9 18 -21z m-3575 -30 c0
-11 -4 -18 -9 -14 -6 3 -9 14 -8 25 2 24 17 15 17 -11z m-90 -10 c0 -6 -4 -7
-10 -4 -5 3 -10 11 -10 16 0 6 5 7 10 4 6 -3 10 -11 10 -16z m40 7 c0 -11 -19
-15 -25 -6 -3 5 1 10 9 10 9 0 16 -2 16 -4z m4140 -116 c0 -5 -4 -10 -10 -10
-5 0 -10 5 -10 10 0 6 5 10 10 10 6 0 10 -4 10 -10z m783 -392 c-1 -172 -3
-352 -3 -400 l0 -86 -122 -4 c-68 -2 -127 -1 -131 3 -4 3 5 19 21 35 52 52
118 140 140 185 77 160 18 334 -138 406 -113 52 -220 37 -306 -41 -70 -63 -97
-121 -98 -215 -1 -82 25 -171 50 -171 7 0 11 -6 8 -13 -3 -8 27 -50 66 -95 38
-45 70 -84 70 -87 0 -3 -58 -5 -130 -5 l-130 0 0 400 0 400 353 0 352 0 -2
-312z m-4170 263 c3 -14 1 -18 -9 -14 -15 6 -18 16 -7 26 9 10 10 9 16 -12z
m37 -1 c0 -5 -4 -10 -10 -10 -5 0 -10 5 -10 10 0 6 5 10 10 10 6 0 10 -4 10
-10z m3858 -245 c26 -14 46 -27 44 -30 -1 -3 6 -17 15 -32 12 -19 18 -47 18
-89 0 -54 -4 -68 -32 -107 -18 -24 -30 -47 -28 -51 3 -3 2 -4 -1 -1 -4 2 -25
-11 -48 -30 l-41 -33 -46 34 c-26 19 -64 59 -85 89 -32 47 -38 64 -37 105 2
131 127 206 241 145z m-533 -865 c-3 -5 -12 -10 -18 -10 -7 0 -6 4 3 10 19 12
23 12 15 0z m-2095 -37 c0 -26 -14 -48 -76 -115 -115 -125 -128 -136 -156
-131 -15 3 -63 46 -121 108 -84 90 -97 108 -97 138 l0 35 225 -1 225 -2 0 -32z
m-870 -12 c0 -3 -8 -16 -18 -28 -16 -21 -26 -23 -177 -26 -112 -3 -170 -9
-195 -20 -65 -27 -120 -107 -120 -173 0 -14 -12 -31 -30 -44 l-30 -21 0 63 c0
35 5 80 11 101 18 67 86 128 164 148 34 9 395 8 395 0z m232 -71 c25 -36 73
-96 106 -134 l60 -69 -59 -87 c-32 -48 -59 -92 -59 -98 0 -22 -15 -12 -47 31
-17 23 -68 81 -112 130 -45 48 -81 91 -81 96 0 17 133 212 140 204 3 -4 27
-37 52 -73z m1438 69 c25 -5 56 -17 68 -25 l24 -16 -21 -22 c-12 -12 -18 -26
-14 -30 4 -3 -15 4 -43 16 -44 20 -65 23 -207 23 -157 0 -158 0 -177 25 -11
14 -20 28 -20 33 0 11 339 8 390 -4z m-449 -166 c20 -31 20 -35 5 -58 -19 -28
-52 -35 -42 -9 4 10 -4 30 -19 50 -14 18 -25 36 -25 40 0 3 -13 22 -30 41 -35
39 -36 45 -14 78 l16 24 44 -66 c24 -36 53 -81 65 -100z m-1456 -195 c8 -33
-11 -58 -44 -58 -9 0 -62 -13 -119 -29 -57 -16 -101 -24 -99 -18 7 23 76 69
153 102 43 19 84 35 91 35 6 0 15 -14 18 -32z m1860 -3 c28 -12 74 -40 102
-61 52 -39 69 -62 36 -49 -22 8 -177 51 -215 59 -25 6 -28 11 -28 46 0 39 1
40 28 34 15 -3 50 -16 77 -29z m-1460 -395 c148 -172 137 -167 202 -94 29 32
79 94 110 137 59 80 70 83 72 19 1 -35 53 -82 91 -82 67 0 105 40 112 120 l3
35 17 -35 c18 -40 159 -218 187 -238 24 -17 41 -7 100 62 24 28 80 91 125 140
45 49 90 101 101 117 43 62 45 54 45 -209 l0 -247 -47 -25 c-66 -34 -153 -124
-185 -190 -51 -107 -62 -263 -24 -369 10 -26 16 -76 16 -125 0 -147 46 -261
141 -351 32 -31 83 -67 114 -81 l55 -25 0 -75 0 -74 -753 0 -754 0 1 72 1 71
64 33 c150 77 229 213 232 401 1 51 9 113 19 148 28 97 33 171 16 253 -29 137
-117 262 -225 316 l-51 26 0 256 0 255 53 -58 c30 -32 103 -114 162 -183z
m-835 -152 c0 -117 3 -247 6 -290 l7 -76 -86 -144 c-123 -207 -177 -328 -241
-540 -29 -97 -72 -266 -91 -364 -5 -23 -31 -34 -84 -34 l-34 0 7 83 c17 191
97 601 171 872 50 181 98 310 167 451 57 114 149 254 168 254 5 0 9 -96 10
-212z m2645 192 c3 -5 1 -10 -4 -10 -6 0 -11 5 -11 10 0 6 2 10 4 10 3 0 8 -4
11 -10z m-2056 -495 c41 -21 88 -75 113 -130 18 -40 23 -67 22 -130 -1 -110
-29 -179 -103 -254 -49 -50 -68 -62 -148 -91 -79 -28 -100 -40 -141 -84 -79
-84 -156 -233 -182 -351 -22 -107 3 -95 -195 -95 -133 0 -175 3 -175 13 0 36
74 317 108 414 104 289 280 569 418 664 94 64 210 83 283 44z m1668 -10 c174
-79 367 -378 499 -773 46 -137 97 -342 88 -351 -3 -3 -58 -4 -122 -3 -64 1
-142 2 -172 2 l-56 0 -13 63 c-15 71 -60 207 -86 257 -55 106 -136 178 -231
206 -221 64 -331 302 -232 501 24 49 84 103 133 121 42 16 131 5 192 -23z
m1737 -136 c46 -37 24 -109 -39 -125 -11 -2 -193 -3 -404 -2 l-384 3 -18 65
c-10 36 -18 68 -19 73 0 4 188 7 419 7 408 0 419 -1 445 -21z m-4965 -296 c11
-10 24 -32 27 -50 5 -27 1 -37 -25 -63 l-31 -31 -132 6 c-126 6 -134 8 -156
32 -28 31 -23 67 14 101 23 20 34 22 153 22 108 0 132 -3 150 -17z m4371 -13
c45 -45 11 -120 -53 -120 -42 0 -70 29 -69 71 0 17 8 40 18 50 23 25 78 25
104 -1z m-4496 -271 c50 -39 25 -119 -37 -119 -66 0 -93 78 -41 119 15 12 32
21 39 21 7 0 24 -9 39 -21z m5055 -5 c28 -35 26 -69 -4 -99 -23 -24 -29 -25
-161 -25 -128 0 -139 2 -161 22 -30 28 -30 74 -1 105 20 22 28 23 164 23 142
0 143 0 163 -26z"/>
<path d="M4315 6323 c-228 -27 -328 -52 -372 -95 -60 -58 -67 -148 -16 -209
51 -60 70 -62 254 -28 90 16 203 33 251 36 99 7 138 24 163 73 35 67 16 141
-50 199 -34 30 -39 31 -118 30 -45 -1 -95 -4 -112 -6z"/>
<path d="M4259 5453 c-198 -101 -129 -392 93 -393 59 0 86 10 133 52 75 65 93
154 51 243 -27 59 -46 77 -106 104 -61 28 -106 26 -171 -6z"/>
<path d="M5771 5466 c-170 -56 -190 -298 -31 -382 159 -85 346 75 289 247 -38
112 -149 170 -258 135z"/>
<path d="M3142 4882 c-8 -6 -2 -9 18 -9 20 0 26 3 18 9 -7 4 -15 8 -18 8 -3 0
-11 -4 -18 -8z"/>
<path d="M3295 4808 l-20 -21 23 12 c12 7 27 9 32 6 6 -3 7 1 4 9 -8 20 -15
19 -39 -6z"/>
<path d="M3260 4809 c0 -5 5 -7 10 -4 6 3 10 8 10 11 0 2 -4 4 -10 4 -5 0 -10
-5 -10 -11z"/>
<path d="M3394 4799 c-3 -6 -2 -15 4 -21 6 -6 12 -6 17 3 6 8 4 10 -5 4 -10
-6 -12 -4 -7 8 7 19 2 23 -9 6z"/>
<path d="M3850 4600 c0 -5 5 -10 10 -10 6 0 10 5 10 10 0 6 -4 10 -10 10 -5 0
-10 -4 -10 -10z"/>
<path d="M3884 4594 c3 -9 6 -18 6 -21 0 -2 7 2 15 11 20 20 19 26 -6 26 -15
0 -19 -4 -15 -16z"/>
<path d="M4197 4603 c-12 -12 -7 -22 8 -17 8 4 15 2 15 -4 0 -6 -6 -13 -12
-15 -7 -3 -8 -6 -3 -6 6 0 16 3 24 8 12 8 12 12 -2 25 -17 18 -21 19 -30 9z"/>
<path d="M4280 4600 c8 -5 23 -7 32 -4 13 4 16 1 12 -10 -3 -9 -16 -16 -27
-16 -20 0 -20 0 -1 -14 17 -13 20 -12 32 10 17 32 8 44 -31 44 -24 0 -28 -3
-17 -10z"/>
<path d="M6095 4600 c-4 -6 2 -9 14 -7 29 4 39 17 13 17 -11 0 -24 -5 -27 -10z"/>
<path d="M5885 4591 c-6 -11 13 -26 22 -17 4 3 1 6 -6 6 -7 0 -9 5 -6 10 3 6
4 10 1 10 -3 0 -7 -4 -11 -9z"/>
<path d="M6235 4590 c-3 -5 1 -10 9 -10 8 0 18 5 21 10 3 6 -1 10 -9 10 -8 0
-18 -4 -21 -10z"/>
<path d="M5820 4581 c0 -5 5 -13 10 -16 6 -3 10 -2 10 4 0 5 -4 13 -10 16 -5
3 -10 2 -10 -4z"/>
<path d="M3860 4568 c0 -9 7 -22 17 -29 15 -13 15 -12 3 11 -17 34 -20 36 -20
18z"/>
<path d="M5938 4573 c7 -3 16 -2 19 1 4 3 -2 6 -13 5 -11 0 -14 -3 -6 -6z"/>
<path d="M6262 4559 c-7 -11 -9 -25 -5 -32 4 -7 10 0 15 18 9 36 6 40 -10 14z"/>
<path d="M4680 4542 c-123 -61 -73 -318 86 -449 l45 -36 43 31 c75 54 120 67
231 66 114 -1 188 -23 241 -73 l32 -30 46 30 c150 100 222 348 128 442 -23 23
-42 31 -81 35 l-51 5 0 -32 c0 -44 -23 -85 -67 -118 l-36 -28 -208 0 c-194 0
-209 1 -235 21 -43 31 -65 67 -71 112 -5 39 -8 42 -37 42 -17 0 -47 -8 -66
-18z"/>
<path d="M3902 4522 c-11 -25 -11 -25 4 -10 9 9 15 21 13 27 -2 6 -10 -2 -17
-17z"/>
<path d="M4270 4541 c0 -5 7 -11 14 -14 10 -4 13 -1 9 9 -6 15 -23 19 -23 5z"/>
<path d="M5031 2634 c-26 -22 -31 -33 -31 -71 0 -92 93 -136 161 -75 95 85
-32 229 -130 146z"/>
<path d="M5074 2272 c-12 -2 -34 -17 -50 -33 -62 -64 -16 -169 74 -169 68 0
117 69 92 129 -21 53 -67 81 -116 73z"/>
<path d="M5029 1841 c-64 -64 -19 -176 71 -176 34 0 47 6 66 28 45 52 44 104
-2 150 -38 39 -95 37 -135 -2z"/>
<path d="M5029 1441 c-60 -60 -27 -156 57 -168 100 -13 148 94 76 170 -37 39
-93 38 -133 -2z"/>
<path d="M3467 1766 c-4 -10 -1 -13 8 -9 8 3 12 9 9 14 -7 12 -11 11 -17 -5z"/>
<path d="M3471 1724 c0 -11 3 -14 6 -6 3 7 2 16 -1 19 -3 4 -6 -2 -5 -13z"/>
<path d="M2220 7570 c-17 -17 -20 -33 -20 -110 0 -109 -14 -116 -59 -28 -31
61 -71 63 -99 5 -11 -22 -10 -31 4 -59 30 -60 73 -106 114 -122 l40 -16 0
-195 0 -194 -57 -27 c-73 -35 -170 -131 -205 -204 -35 -72 -47 -129 -48 -217
0 -102 -1 -103 -76 -103 -73 0 -104 -20 -104 -68 0 -40 28 -62 78 -62 l42 0 0
-87 c0 -49 0 -425 -1 -838 0 -412 -1 -758 0 -767 0 -15 -13 -18 -92 -20 -86
-3 -92 -4 -106 -29 -31 -55 0 -90 83 -93 l31 -1 1 -688 c1 -378 3 -689 5 -691
2 -3 30 1 61 9 31 7 59 10 62 7 3 -3 6 11 6 31 0 35 2 37 33 38 17 0 193 1
390 2 l357 2 0 -40 c1 -35 2 -38 12 -20 7 11 18 26 25 33 7 7 18 21 25 30 7
10 28 28 45 40 18 13 32 31 31 40 -1 9 0 146 0 305 l2 287 288 0 c267 0 290 1
305 18 23 25 21 68 -3 92 -19 19 -33 20 -305 20 l-285 0 -1 135 c0 74 -1 151
-1 170 0 19 1 66 1 103 l1 68 42 10 c53 11 72 48 47 92 -14 26 -19 27 -107 30
l-92 3 0 849 0 850 33 0 c42 0 77 35 77 76 0 51 -12 59 -97 64 l-78 5 -6 110
c-3 61 -13 128 -21 150 -41 109 -130 205 -240 261 l-48 25 2 191 3 192 40 8
c68 15 107 67 78 107 -17 25 -43 27 -82 6 -16 -8 -31 -11 -35 -8 -3 4 -6 53
-6 109 0 95 -2 104 -22 118 -30 21 -44 20 -68 -4z m65 -28 c-3 -3 -11 0 -18 7
-9 10 -8 11 6 5 10 -3 15 -9 12 -12z m16 -832 c49 -14 112 -71 149 -136 27
-47 32 -66 34 -133 2 -43 1 -92 -2 -109 l-4 -32 -217 1 c-134 1 -221 5 -229
11 -9 8 -11 33 -7 92 9 130 15 154 53 204 42 56 61 71 116 94 49 20 60 21 107
8z m255 -690 c-2 -77 0 -142 4 -145 4 -2 4 -24 0 -48 -3 -24 -5 -83 -3 -131 3
-65 1 -87 -9 -91 -23 -7 -149 -12 -153 -6 -2 4 9 26 25 50 16 24 32 59 36 78
8 41 -2 107 -16 111 -5 2 -7 8 -4 14 8 12 -48 72 -93 99 -47 30 -129 29 -177
-1 -78 -47 -108 -99 -107 -178 0 -71 16 -117 48 -142 29 -22 32 -21 -62 -22
-27 0 -58 0 -67 1 -16 1 -17 22 -14 259 2 141 4 265 5 275 1 16 22 17 296 17
l295 0 -4 -140z m-258 -186 c38 -27 45 -59 21 -105 -20 -40 -20 -40 -74 -38
-30 1 -53 4 -51 7 2 2 -2 19 -10 38 -13 30 -13 38 1 64 26 50 71 64 113 34z
m252 -374 c5 -8 6 -178 1 -313 l-1 -38 -52 3 -52 3 3 122 c2 119 2 123 -23
148 -14 14 -34 25 -46 25 -28 0 -60 -35 -61 -67 0 -16 -2 -50 -3 -78 -2 -27 1
-58 6 -67 5 -11 5 -18 -1 -18 -5 0 -8 -11 -7 -24 2 -14 0 -29 -3 -34 -5 -9
-61 -16 -98 -13 -10 1 -13 35 -13 136 0 132 0 135 -25 151 -24 16 -55 14 -83
-5 -10 -6 -14 -37 -14 -117 0 -166 1 -164 -63 -164 l-54 0 2 176 c1 126 4 177
13 182 19 11 567 3 574 -8z m8 -639 c2 -108 -1 -141 -10 -142 -7 0 -30 -2 -51
-3 -21 -1 -40 1 -42 4 -3 4 -6 47 -9 95 -3 54 -10 93 -18 101 -17 18 -69 27
-87 15 -16 -10 -33 -91 -19 -91 6 0 7 -8 3 -17 -4 -10 -8 -34 -9 -53 -1 -19
-5 -41 -9 -47 -9 -14 -75 -17 -93 -5 -7 4 -11 42 -12 97 0 80 -2 91 -22 107
-32 26 -65 22 -90 -9 -17 -22 -21 -40 -20 -98 1 -38 1 -77 1 -85 -1 -18 -30
-23 -78 -15 l-32 6 2 142 2 142 280 5 c154 3 287 2 295 -2 13 -5 16 -32 18
-147z m-1 -295 c-3 -7 1 -25 8 -39 l13 -25 -309 -2 c-340 -1 -319 -5 -303 58
l6 22 295 0 c246 0 294 -2 290 -14z m-139 -206 l242 0 0 -115 c0 -85 -3 -115
-12 -116 -7 -1 -37 -1 -66 0 -42 2 -52 -1 -46 -11 6 -10 5 -10 -7 -2 -10 8
-109 12 -328 13 -173 1 -316 2 -317 4 -3 3 -7 106 -5 169 l1 57 38 3 c20 2 87
2 147 1 61 -1 219 -2 353 -3z m230 -370 c9 0 12 -40 12 -164 l0 -164 -40 -7
c-21 -4 -44 -4 -50 0 -6 4 -10 49 -10 110 0 57 -4 115 -9 128 -18 47 -86 48
-111 2 -9 -17 -13 -58 -13 -123 1 -53 -3 -103 -9 -109 -6 -7 -26 -13 -45 -13
-18 0 -36 6 -38 13 -2 6 -6 59 -8 117 -5 120 -10 136 -40 144 -36 9 -45 7 -67
-16 -17 -18 -20 -35 -20 -105 0 -65 3 -82 13 -77 9 6 9 5 0 -7 -6 -8 -13 -25
-15 -39 -3 -23 -7 -25 -53 -25 l-50 0 -1 75 c-1 45 -6 76 -13 78 -6 2 -11 11
-11 20 0 15 2 15 10 2 7 -11 10 -5 10 23 0 20 -4 37 -10 37 -5 0 -10 6 -10 14
0 28 -53 34 -85 10 -18 -13 -20 -27 -20 -137 l-1 -122 -42 -3 -42 -3 0 170 0
171 253 2 c203 2 376 2 515 -2z m-5 -478 c15 -4 17 -19 17 -142 0 -152 -3
-159 -60 -156 l-35 2 -5 108 c-4 92 -8 110 -24 122 -25 18 -57 18 -82 0 -16
-12 -20 -30 -24 -123 l-5 -108 -49 0 -49 0 2 102 c2 91 0 104 -18 122 -27 27
-73 27 -96 1 -16 -18 -19 -36 -17 -120 1 -62 -2 -101 -8 -102 -29 -4 -90 -4
-91 1 -1 3 -2 50 -3 103 -2 108 -16 138 -66 138 -50 0 -63 -29 -63 -139 l0
-99 -45 -4 c-24 -2 -45 -1 -47 2 -6 11 -6 267 1 284 6 16 31 17 378 15 204 -2
379 -5 389 -7z"/>
<path d="M3561 4071 c-19 -19 -20 -40 -20 -494 -1 -445 0 -476 17 -497 22 -27
67 -30 90 -6 15 15 17 63 17 495 0 457 -1 480 -19 500 -24 26 -60 27 -85 2z"/>
<path d="M6552 4074 c-12 -8 -20 -20 -17 -25 4 -5 1 -9 -4 -9 -7 0 -11 -149
-11 -468 0 -522 -1 -512 65 -512 66 0 65 -10 60 520 -4 470 -5 475 -26 493
-26 21 -38 21 -67 1z"/>
<path d="M7635 3606 c-18 -18 -23 -32 -20 -57 3 -18 8 -36 13 -41 16 -16 72
-17 87 -2 22 22 19 80 -5 104 -26 26 -46 25 -75 -4z"/>
<path d="M7843 3620 c-30 -12 -41 -71 -19 -105 19 -29 51 -32 84 -9 29 20 30
76 2 104 -22 22 -33 23 -67 10z"/>
<path d="M8036 3617 c-13 -10 -19 -27 -20 -57 -1 -35 4 -46 26 -63 25 -19 28
-19 52 -4 35 23 43 72 19 106 -23 31 -51 37 -77 18z"/>
<path d="M2994 3455 c-18 -14 -17 -14 9 -5 19 7 26 7 22 0 -3 -6 0 -10 7 -10
8 0 6 -5 -5 -11 -9 -5 -22 -7 -27 -4 -6 3 -10 0 -10 -7 0 -9 -3 -9 -10 2 -5 8
-10 10 -10 4 0 -16 25 -35 34 -27 4 4 4 -1 0 -12 -7 -17 -6 -18 8 -5 9 8 15
20 15 25 -1 6 5 9 14 7 18 -2 22 29 5 40 -8 6 -8 8 0 8 6 0 17 -7 24 -15 9
-10 9 -15 1 -15 -6 0 -10 -3 -8 -8 1 -4 -8 -18 -20 -32 -23 -24 -32 -57 -13
-45 6 4 7 11 4 17 -4 7 -2 8 5 4 6 -4 9 -12 5 -17 -3 -6 2 -17 12 -25 11 -9
13 -12 5 -8 -22 11 -62 13 -55 3 3 -5 0 -9 -5 -9 -6 0 -11 7 -11 15 0 8 5 15
10 15 6 0 3 11 -6 25 -9 14 -19 23 -22 20 -3 -3 0 -11 6 -17 15 -15 16 -32 2
-23 -14 9 -12 -8 4 -30 8 -11 12 -24 11 -30 -2 -5 -6 -23 -10 -39 -5 -26 -5
-27 10 -12 11 10 14 24 10 38 -5 17 -4 19 3 9 12 -16 47 -7 36 10 -5 8 -9 8
-14 -1 -5 -8 -9 -7 -13 4 -8 21 5 27 26 11 15 -11 17 -17 7 -34 -6 -13 -16
-19 -23 -14 -7 4 -6 0 2 -10 13 -16 14 -16 26 -1 11 15 13 14 17 -8 4 -20 1
-25 -10 -21 -12 5 -12 2 -3 -15 7 -12 16 -22 21 -22 11 0 18 211 8 247 -12 44
-56 57 -94 28z"/>
<path d="M3257 3452 c-21 -23 -25 -167 -4 -175 10 -4 10 -6 0 -6 -21 -1 -16
-75 5 -94 24 -22 33 -21 26 1 -5 16 -5 16 6 0 15 -24 36 -22 54 4 19 26 21 59
5 56 -6 -2 -13 3 -14 10 -2 7 -1 8 2 2 13 -28 23 10 23 91 0 76 -3 92 -20 109
-25 25 -62 26 -83 2z m6 -47 c-7 -21 -12 -19 -10 4 0 11 5 18 9 15 4 -3 5 -11
1 -19z m12 -53 c-3 -3 -11 0 -18 7 -9 10 -8 11 6 5 10 -3 15 -9 12 -12z m35
-110 c0 -5 -7 -9 -15 -9 -8 0 -12 4 -9 9 3 4 9 8 15 8 5 0 9 -4 9 -8z m-27
-36 c-4 -6 -8 -5 -11 2 -2 7 -7 10 -11 8 -4 -3 -8 1 -8 8 0 11 4 12 18 3 10
-6 15 -16 12 -21z"/>
<path d="M6867 3463 c-11 -3 -16 -11 -13 -19 4 -10 2 -12 -6 -8 -7 5 -9 0 -6
-14 4 -12 2 -20 -3 -17 -5 3 -7 -43 -6 -105 2 -86 6 -114 19 -126 22 -22 68
-21 85 2 18 24 18 234 1 253 -10 11 -10 13 0 7 6 -4 12 -2 12 4 0 6 -12 15
-26 20 -27 10 -28 11 -57 3z"/>
<path d="M7140 3460 c8 -5 11 -10 6 -10 -5 0 -3 -7 4 -15 7 -8 8 -15 2 -15 -5
0 -15 7 -22 15 -9 11 -16 13 -23 6 -7 -7 -6 -15 3 -26 7 -8 8 -15 3 -15 -6 0
-11 -45 -11 -112 0 -62 2 -108 4 -101 3 7 12 9 20 6 9 -3 29 7 47 23 l32 29
-25 -28 -24 -27 25 4 c13 2 27 5 32 5 4 1 7 6 7 12 0 5 -4 7 -10 4 -5 -3 -10
-1 -10 4 0 6 6 11 13 11 8 0 7 4 -3 10 -11 7 -12 12 -3 18 6 4 11 23 11 42 -1
19 -3 30 -5 23 -2 -7 -12 -9 -20 -6 -13 5 -15 2 -10 -11 4 -10 7 -20 7 -22 0
-3 5 -2 10 1 6 3 10 2 10 -4 0 -5 -4 -13 -10 -16 -5 -3 -10 -1 -10 5 0 6 -4 9
-9 6 -5 -4 -11 -1 -13 6 -3 7 -9 8 -19 3 -20 -13 -40 -15 -33 -4 3 5 8 7 12 5
10 -6 37 16 51 42 7 12 17 20 23 16 6 -4 8 -3 4 4 -3 6 -2 13 4 17 7 4 7 12 0
25 -7 13 -6 20 2 22 16 6 3 34 -22 48 -15 8 -20 8 -18 -1 2 -6 -3 -14 -10 -16
-8 -3 -10 1 -6 11 4 11 0 16 -12 16 -16 0 -17 -2 -4 -10z m61 -24 c5 3 9 0 9
-6 0 -6 -7 -13 -15 -16 -8 -4 -15 -13 -15 -21 0 -12 -3 -13 -14 -4 -10 8 -16
9 -21 1 -3 -6 -11 -8 -16 -5 -5 4 -9 2 -9 -4 0 -5 5 -13 10 -16 6 -4 8 -10 5
-15 -11 -18 14 -20 27 -2 7 10 22 21 33 25 17 6 16 4 -4 -11 -13 -11 -32 -30
-43 -43 -14 -19 -17 -20 -11 -5 5 14 3 18 -8 14 -19 -7 -20 59 -1 71 11 7 11
9 -2 14 -9 4 -16 11 -16 17 0 6 12 2 26 -9 27 -21 49 -19 40 4 -2 7 -2 16 2
20 4 3 8 1 10 -4 2 -6 8 -9 13 -5z m-11 -185 c0 -5 -7 -11 -14 -14 -10 -4 -13
-1 -9 9 6 15 23 19 23 5z"/>
<path d="M8036 3394 c-22 -22 -31 -62 -20 -93 7 -20 17 -27 45 -29 44 -4 63
16 62 66 -2 57 -53 90 -87 56z"/>
<path d="M7632 3388 c-7 -7 -12 -31 -12 -54 0 -45 24 -74 62 -74 42 0 65 92
30 123 -22 20 -63 22 -80 5z"/>
<path d="M7831 3387 c-17 -22 -24 -73 -12 -95 6 -11 25 -24 43 -27 26 -6 35
-3 50 15 23 29 23 82 0 103 -22 20 -65 22 -81 4z"/>
<path d="M3005 3220 c-3 -5 -2 -10 4 -10 5 0 13 5 16 10 3 6 2 10 -4 10 -5 0
-13 -4 -16 -10z"/>
<path d="M7645 3176 c-25 -18 -32 -92 -10 -116 37 -41 95 -8 95 53 0 50 -51
88 -85 63z"/>
<path d="M7843 3178 c-40 -19 -39 -103 1 -130 20 -13 53 -8 69 10 24 26 22 87
-3 112 -22 22 -35 24 -67 8z"/>
<path d="M8032 3167 c-28 -33 -22 -97 12 -119 21 -15 55 -8 70 14 34 48 8 118
-43 118 -16 0 -33 -6 -39 -13z"/>
</g>
</svg>
