<?xml version="1.0" standalone="no"?>
<!DOCTYPE svg PUBLIC "-//W3C//DTD SVG 20010904//EN"
 "http://www.w3.org/TR/2001/REC-SVG-20010904/DTD/svg10.dtd">
<svg version="1.0" xmlns="http://www.w3.org/2000/svg"
 width="1024.000000pt" height="1024.000000pt" viewBox="0 0 1024.000000 1024.000000"
 preserveAspectRatio="xMidYMid meet">

<g transform="translate(0.000000,1024.000000) scale(0.100000,-0.100000)"
fill="#000000" stroke="none">
<path d="M3220 8944 c-24 -7 -1065 -1065 -1086 -1104 -18 -34 -19 -116 -18
-3242 l1 -3208 26 -39 c15 -23 44 -47 70 -60 l45 -22 2879 3 2878 3 35 21 c19
11 45 35 58 54 l22 33 -2 3731 -3 3731 -23 33 c-13 18 -41 41 -62 52 -39 20
-67 20 -2422 19 -1311 -1 -2390 -3 -2398 -5z m4547 -322 c13 -7 30 -26 38 -42
13 -26 15 -412 13 -3491 l-3 -3461 -24 -19 c-23 -19 -79 -19 -2662 -19 -2600
0 -2639 0 -2658 19 -11 11 -23 35 -26 53 -3 18 -5 1344 -3 2945 l3 2912 23 23
c22 23 25 23 380 28 385 5 388 6 438 62 50 54 49 47 52 513 3 428 4 441 24
462 11 12 30 24 42 26 11 3 993 4 2181 3 1734 -1 2164 -4 2182 -14z m-4846
-665 c-8 -8 -63 -10 -266 -8 l-90 1 180 180 180 180 3 -172 c1 -94 -2 -176 -7
-181z"/>
<path d="M6435 8194 c-250 -38 -450 -225 -505 -471 -16 -69 -13 -218 5 -287
25 -95 90 -208 159 -278 110 -111 234 -162 401 -162 181 -1 295 44 416 164 83
82 136 173 164 285 33 131 10 312 -57 438 -41 77 -139 182 -210 224 -104 63
-273 102 -373 87z m291 -428 c91 -82 109 -120 109 -226 0 -73 -4 -93 -28 -142
-35 -72 -110 -140 -185 -168 -84 -32 -206 -25 -281 15 -135 74 -211 248 -164
379 l18 50 73 18 c109 26 195 72 250 133 l47 53 48 -27 c27 -14 78 -52 113
-85z"/>
<path d="M3684 8169 c-16 -5 -41 -20 -55 -35 -24 -25 -24 -27 -27 -257 -3
-203 -1 -236 14 -264 35 -66 -7 -63 937 -63 l854 0 34 23 c65 43 70 65 67 309
l-3 218 -38 37 -37 38 -858 2 c-481 1 -870 -3 -888 -8z m245 -195 c22 -18 31
-35 31 -56 0 -31 -16 -68 -34 -80 -7 -5 -5 -18 7 -43 23 -48 22 -55 -8 -55
-20 0 -28 8 -41 40 -13 31 -22 40 -40 40 -21 0 -24 -4 -24 -40 0 -38 -2 -40
-30 -40 l-30 0 0 124 c0 90 3 126 13 129 6 3 38 6 69 6 47 1 62 -3 87 -25z
m296 -4 c0 -24 -3 -25 -62 -28 -54 -3 -63 -6 -63 -22 0 -16 9 -19 53 -22 48
-3 52 -5 55 -30 3 -28 2 -28 -52 -28 -53 0 -56 -1 -56 -25 0 -24 3 -25 60 -25
57 0 60 -1 60 -25 0 -25 -1 -25 -90 -25 l-90 0 0 130 0 131 93 -3 c91 -3 92
-3 92 -28z m210 18 c29 -13 30 -17 11 -44 -13 -16 -18 -17 -36 -6 -26 16 -62
6 -58 -15 2 -9 21 -22 43 -30 48 -16 62 -29 70 -64 5 -21 0 -34 -23 -60 -38
-43 -97 -47 -137 -9 -22 21 -24 26 -11 39 12 11 18 12 30 2 21 -18 80 -10 84
11 2 11 -8 20 -35 28 -73 24 -104 71 -78 120 8 16 23 31 32 33 34 9 82 7 108
-5z m145 -65 c0 -89 15 -126 50 -131 39 -6 50 21 50 121 l0 88 28 -3 27 -3 -1
-95 c0 -109 -11 -135 -61 -156 -43 -19 -93 -5 -123 33 -17 22 -20 41 -20 124
0 99 0 99 25 99 25 0 25 -2 25 -77z m317 17 c18 -30 37 -56 41 -58 5 -1 28 25
51 58 51 73 81 81 81 23 0 -21 3 -80 7 -130 l6 -93 -32 0 -31 0 0 66 0 67 -34
-43 c-18 -23 -37 -42 -41 -42 -4 0 -23 19 -41 42 l-34 43 0 -67 0 -66 -30 0
-30 0 0 131 0 130 27 -3 c20 -2 35 -16 60 -58z m453 30 l0 -30 -65 0 c-63 0
-65 -1 -65 -25 0 -23 3 -25 50 -25 47 0 50 -2 50 -25 0 -23 -3 -25 -50 -25
-47 0 -50 -2 -50 -25 0 -24 2 -25 65 -25 63 0 65 -1 65 -25 0 -25 0 -25 -95
-25 l-95 0 0 123 c0 68 3 127 7 130 3 4 46 7 95 7 l88 0 0 -30z"/>
<path d="M3820 7905 c0 -32 2 -35 29 -35 27 0 61 21 61 39 0 17 -26 31 -57 31
-31 0 -33 -2 -33 -35z"/>
<path d="M3009 7140 c-20 -10 -43 -30 -53 -44 -20 -32 -21 -117 -1 -156 33
-63 -21 -60 1040 -60 1088 0 1010 -6 1047 77 24 55 18 99 -19 143 -53 64 9 60
-1030 60 -912 -1 -949 -2 -984 -20z"/>
<path d="M6005 6893 c-120 -32 -270 -79 -312 -99 -66 -32 -135 -108 -164 -182
-20 -50 -23 -80 -26 -257 -4 -194 -4 -201 19 -245 13 -25 38 -55 57 -67 l34
-23 866 0 866 0 39 23 c23 13 48 38 60 62 19 37 21 56 21 255 0 215 0 215 -28
276 -34 73 -94 135 -159 164 -71 31 -279 92 -315 92 -40 0 -81 -20 -105 -52
-10 -14 -66 -139 -126 -279 -59 -140 -112 -256 -118 -258 -14 -5 -24 97 -24
251 0 111 1 120 25 148 26 31 33 84 15 118 -14 25 -63 40 -136 40 -82 0 -110
-12 -130 -54 -20 -40 -14 -73 21 -114 23 -28 25 -38 25 -134 0 -138 -11 -259
-22 -256 -5 2 -52 100 -104 218 -128 294 -150 337 -177 354 -27 18 -73 27
-102 19z"/>
<path d="M3015 6630 c-43 -21 -68 -55 -80 -107 -9 -45 24 -117 67 -143 33 -20
47 -20 988 -20 1085 0 1005 -6 1049 83 17 35 22 56 17 82 -9 47 -59 102 -104
115 -24 6 -366 10 -967 10 -909 0 -931 0 -970 -20z"/>
<path d="M3024 6101 c-49 -22 -81 -61 -90 -107 -9 -49 25 -114 75 -142 l39
-22 757 0 c686 0 760 2 792 17 54 25 75 66 70 137 -3 52 -7 63 -38 91 l-35 32
-154 6 c-84 4 -428 7 -764 7 -573 0 -614 -2 -652 -19z"/>
<path d="M3013 5571 c-55 -25 -88 -85 -78 -142 7 -42 42 -91 79 -111 16 -9
537 -11 2135 -10 2014 2 2115 3 2145 20 43 25 68 76 63 131 -6 52 -31 90 -78
113 -32 17 -154 18 -2129 18 -2038 0 -2096 -1 -2137 -19z"/>
<path d="M3014 5061 c-75 -46 -99 -114 -64 -186 41 -85 -177 -77 2201 -78
l2117 -1 35 27 c82 62 67 196 -26 240 -32 16 -194 17 -2134 17 -2037 0 -2099
-1 -2129 -19z"/>
<path d="M3004 4531 c-48 -29 -64 -59 -64 -117 0 -42 5 -59 27 -85 54 -63
-104 -59 2184 -59 l2092 0 43 25 c86 50 94 157 19 224 l-36 31 -2117 0 c-2066
0 -2118 -1 -2148 -19z"/>
<path d="M3020 4013 c-31 -11 -71 -58 -80 -95 -18 -63 8 -126 64 -156 28 -14
96 -16 636 -19 333 -1 771 0 975 3 l370 7 32 32 c33 33 50 87 39 130 -4 14
-22 43 -41 63 l-33 37 -974 2 c-535 1 -980 -1 -988 -4z"/>
<path d="M5535 3497 c-62 -62 -52 -172 21 -217 33 -21 41 -21 866 -23 776 -1
835 0 865 16 90 48 95 186 9 238 -30 18 -67 19 -879 19 l-849 0 -33 -33z"/>
<path d="M2999 3257 c-88 -59 -82 -194 11 -242 25 -13 159 -15 987 -15 932 0
959 1 990 20 41 25 64 59 70 107 6 45 -23 95 -76 130 l-34 23 -957 0 -957 0
-34 -23z"/>
<path d="M5563 2850 c-84 -51 -83 -185 1 -241 17 -12 167 -14 853 -17 919 -3
883 -5 923 60 38 62 22 140 -40 192 l-32 26 -836 0 c-813 0 -838 -1 -869 -20z"/>
<path d="M3633 2773 l-612 -3 -41 -39 c-37 -35 -40 -41 -40 -94 0 -48 4 -61
30 -91 17 -19 45 -39 63 -45 21 -7 359 -10 975 -9 1063 2 986 -4 1031 79 29
54 24 102 -16 150 -49 58 -58 59 -435 57 -189 -2 -618 -4 -955 -5z"/>
<path d="M3012 2250 c-53 -24 -88 -90 -78 -146 7 -35 45 -88 77 -105 13 -6
344 -10 986 -9 1064 1 999 -3 1038 62 38 65 18 142 -49 192 -27 21 -35 21
-979 23 -926 3 -953 2 -995 -17z"/>
<path d="M6120 2252 c-89 -47 -92 -188 -5 -242 31 -19 49 -20 346 -20 294 0
316 1 346 20 84 51 83 190 -1 241 -29 17 -55 19 -341 19 -282 0 -314 -2 -345
-18z"/>
</g>
</svg>
